<svg xmlns="http://www.w3.org/2000/svg" viewBox="0 0 46 57"><path fill="#009DDC" d="M40 0H6C2.7 0 0 2.7 0 6v45c0 3.3 2.7 6 6 6h34c3.3 0 6-2.7 6-6V6c0-3.3-2.7-6-6-6zm4 51c0 2.2-1.8 4-4 4H6c-2.2 0-4-1.8-4-4V6c0-2.2 1.8-4 4-4h34c2.2 0 4 1.8 4 4v45z"/><g fill-rule="evenodd" clip-rule="evenodd" fill="#009DDC"><path d="M30 45H11c-.6 0-1 .4-1 1s.4 1 1 1h19c.6 0 1-.4 1-1s-.4-1-1-1zM35 38H11c-.6 0-1 .4-1 1s.4 1 1 1h24c.6 0 1-.4 1-1s-.4-1-1-1zM35 31H11c-.6 0-1 .4-1 1s.4 1 1 1h24c.6 0 1-.4 1-1s-.4-1-1-1zM35 24H11c-.6 0-1 .4-1 1s.4 1 1 1h24c.6 0 1-.4 1-1s-.4-1-1-1zM35 17H11c-.6 0-1 .4-1 1s.4 1 1 1h24c.6 0 1-.4 1-1s-.4-1-1-1zM11 12h24c.6 0 1-.4 1-1s-.4-1-1-1H11c-.6 0-1 .4-1 1s.4 1 1 1z"/></g></svg>