<svg xmlns="http://www.w3.org/2000/svg" viewBox="0 0 47 47"><g fill="#009DDC"><path d="M22 7.9C20.1 6 17.5 5 15 5c-2.6 0-5.1 1-7.1 2.9-3.9 4-3.9 10.3 0 14.2 1.9 2 4.5 2.9 7.1 2.9 2.6 0 5.1-1 7.1-2.9 3.8-3.9 3.8-10.2-.1-14.2zm-1.4 12.8C19.1 22.2 17.1 23 15 23c-2.1 0-4.1-.8-5.6-2.3-3.1-3.1-3.1-8.2 0-11.3C10.8 7.8 12.8 7 15 7c2.1 0 4.1.8 5.6 2.3 3.1 3.2 3.1 8.3 0 11.4z"/><path d="M45.8 40.2L34.6 28.8c-.7-.7-1.6-1.1-2.6-1.1l-4.5-4.5c3.7-5.8 3.1-13.7-2-18.8C22.6 1.5 18.8 0 15 0 11.1 0 7.3 1.5 4.4 4.4c-5.8 5.9-5.8 15.4 0 21.3 2.9 2.9 6.7 4.4 10.6 4.4 2.9 0 5.9-.9 8.4-2.6l4.4 4.5c.1.9.4 1.9 1.1 2.6l11.3 11.3C41 46.6 42 47 43 47c1 0 2-.4 2.8-1.2 1.6-1.5 1.6-4.1 0-5.6zm-40-16C.7 19.1.7 10.9 5.8 5.8 8.2 3.4 11.5 2 15 2c3.5 0 6.7 1.4 9.2 3.8 5.1 5.1 5.1 13.3 0 18.4-2.5 2.5-5.8 3.8-9.2 3.8-3.5 0-6.8-1.3-9.2-3.8zm20.8.9l2.6 2.7-1.4 1.4-2.6-2.7 1.4-1.4zm17.8 19.3c-.4.4-.9.6-1.4.6s-1-.2-1.4-.6L30.3 33.1c-.8-.8-.8-2.1 0-2.8.4-.4.9-.6 1.4-.6.5 0 1 .2 1.4.6l11.3 11.3c.8.8.8 2 0 2.8z"/></g></svg>